<?xml version="1.0" encoding="UTF-8"?>
<svg id="uuid-2e66d024-4b68-4cfe-a6d3-18259a7998a1" data-name="Layer_1" xmlns="http://www.w3.org/2000/svg" viewBox="0 0 200 250">
  <defs>
    <style>
      .uuid-fb2a4fc9-c8c7-4f3d-91dd-0967291abf7b {
        fill: #5e5b58;
      }

      .uuid-bec8c0bb-c831-4610-842e-2ac8cd621684 {
        fill: #f7f6f5;
      }

      .uuid-07cbbc0b-f229-45aa-8458-b055b62e4e9a {
        fill: #fff;
      }

      .uuid-38297961-9f98-4b11-ac63-3071727c2016 {
        fill: #dd9637;
      }

      .uuid-2b68fe71-bbd7-4444-99b8-f6979b8f3d29 {
        fill: #898279;
      }

      .uuid-997dc7c4-3262-4bf2-9a80-189885b739d2 {
        fill: #eae0d6;
      }

      .uuid-5bac54e0-6501-42cb-a627-db5a7b663bc1 {
        fill: #e5a235;
      }

      .uuid-c62651c0-ea74-465a-aea6-624d4d7b478e {
        fill: #e2b742;
      }
    </style>
  </defs>
  <polygon class="uuid-bec8c0bb-c831-4610-842e-2ac8cd621684" points="171.93 136.21 171.93 129.07 171.93 121.93 171.93 114.79 171.93 107.64 171.93 100.5 164.79 100.5 164.79 93.36 164.79 86.21 157.64 86.21 157.64 79.07 150.5 79.07 150.5 71.93 150.5 64.79 150.5 57.64 143.36 57.64 143.36 50.5 136.21 50.5 136.21 43.36 129.07 43.36 129.07 36.21 121.93 36.21 121.93 29.07 114.79 29.07 107.64 29.07 107.64 36.21 114.79 36.21 114.79 43.36 121.93 43.36 121.93 50.5 129.07 50.5 129.07 57.64 136.21 57.64 136.21 64.79 136.21 71.93 143.36 71.93 143.36 79.07 143.36 86.21 150.5 86.21 150.5 93.36 157.64 93.36 157.64 100.5 157.64 107.64 164.79 107.64 164.79 114.79 164.79 121.93 164.79 129.07 164.79 136.21 164.79 143.36 164.79 150.5 164.79 157.64 157.64 157.64 157.64 164.79 157.64 171.93 150.5 171.93 150.5 179.07 150.5 186.21 143.36 186.21 143.36 193.36 136.21 193.36 129.07 193.36 121.93 193.36 121.93 200.5 114.79 200.5 114.79 207.64 121.93 207.64 129.07 207.64 136.21 207.64 136.21 200.5 143.36 200.5 150.5 200.5 150.5 193.36 157.64 193.36 157.64 186.21 164.79 186.21 164.79 179.07 164.79 171.93 164.79 164.79 171.93 164.79 179.07 164.79 179.07 157.64 179.07 150.5 179.07 143.36 179.07 136.21 171.93 136.21"/>
  <polygon class="uuid-38297961-9f98-4b11-ac63-3071727c2016" points="143.36 114.79 143.36 107.64 136.21 107.64 136.21 100.5 136.21 93.36 129.07 93.36 121.93 93.36 121.93 86.21 114.79 86.21 107.64 86.21 100.5 86.21 93.36 86.21 93.36 93.36 100.5 93.36 107.64 93.36 107.64 100.5 114.79 100.5 114.79 107.64 121.93 107.64 121.93 114.79 129.07 114.79 136.21 114.79 136.21 121.93 136.21 129.07 136.21 136.21 136.21 143.36 129.07 143.36 129.07 150.5 121.93 150.5 121.93 157.64 114.79 157.64 107.64 157.64 100.5 157.64 100.5 164.79 100.5 171.93 93.36 171.93 93.36 179.07 100.5 179.07 107.64 179.07 107.64 171.93 114.79 171.93 121.93 171.93 129.07 171.93 136.21 171.93 136.21 164.79 143.36 164.79 143.36 157.64 143.36 150.5 150.5 150.5 150.5 143.36 150.5 136.21 150.5 129.07 150.5 121.93 150.5 114.79 143.36 114.79"/>
  <g>
    <path class="uuid-5bac54e0-6501-42cb-a627-db5a7b663bc1" d="M129.07,114.79h-7.14v-7.15h-7.14v-7.14h-14.29v7.14h-14.29v7.15h-7.14v14.28h-7.14v14.29h7.14v14.28h7.14v21.43h7.15v-7.14h7.14v-14.29h21.43v-7.14h7.14v-7.14h7.14v-28.57h-7.14ZM93.36,150.5h-7.15v-14.29h7.15v7.15h7.14v7.14h-7.14Z"/>
    <polygon class="uuid-5bac54e0-6501-42cb-a627-db5a7b663bc1" points="107.64 171.93 107.64 179.07 114.79 179.07 121.93 179.07 121.93 171.93 114.79 171.93 107.64 171.93"/>
  </g>
  <g>
    <polygon class="uuid-c62651c0-ea74-465a-aea6-624d4d7b478e" points="100.5 93.36 93.36 93.36 93.36 86.21 86.21 86.21 86.21 93.36 79.07 93.36 79.07 100.5 71.93 100.5 71.93 107.64 64.79 107.64 64.79 114.79 57.64 114.79 57.64 121.93 57.64 129.07 57.64 136.21 57.64 143.36 64.79 143.36 64.79 150.5 64.79 157.64 71.93 157.64 71.93 164.79 79.07 164.79 79.07 171.93 86.21 171.93 86.21 164.79 86.21 157.64 79.07 157.64 79.07 150.5 79.07 143.36 71.93 143.36 71.93 136.21 71.93 129.07 79.07 129.07 79.07 121.93 79.07 114.79 86.21 114.79 86.21 107.64 93.36 107.64 100.5 107.64 100.5 100.5 107.64 100.5 107.64 93.36 100.5 93.36"/>
    <polygon class="uuid-c62651c0-ea74-465a-aea6-624d4d7b478e" points="93.36 136.21 86.21 136.21 86.21 143.36 86.21 150.5 93.36 150.5 100.5 150.5 100.5 143.36 93.36 143.36 93.36 136.21"/>
  </g>
  <g>
    <path class="uuid-07cbbc0b-f229-45aa-8458-b055b62e4e9a" d="M179.07,121.93v-28.57h-7.14v-7.15h-7.14v14.29h7.14v35.71h7.14v28.58h-14.28v21.42h-7.15v7.15h-7.14v7.14h-14.29v7.14h-21.42v-7.14h7.14v-7.14h21.43v-7.15h7.14v-14.28h7.14v-14.29h7.15v-50h-7.15v-14.28h-7.14v-7.15h-7.14v-14.28h-7.15v-14.29h-7.14v-7.14h-7.14v-7.14h-7.14v-7.15h-7.15v-7.14h14.29v7.14h7.14v7.15h7.14v7.14h7.15v7.14h7.14v-14.28h-7.14v-7.15h-7.15v-7.14h-7.14v-7.14h-7.14v-7.14h-21.43v7.14h-7.14v7.14h-14.29v7.14h-7.14v7.15h-7.14v7.14h-7.15v7.14h-7.14v21.43h-7.14v21.43h-7.15v35.71h-7.14v14.29h7.14v7.14h7.15v14.29h7.14v14.28h7.14v14.29h14.29v7.14h7.14v7.15h64.29v-7.15h21.43v-7.14h7.14v-14.29h7.14v-14.28h7.14v-50h-7.14ZM136.21,100.5v7.14h7.15v7.15h7.14v35.71h-7.14v14.29h-7.15v7.14h-14.28v7.14h-35.72v-7.14h-7.14v-7.14h-7.14v-7.15h-7.14v-14.28h-7.15v-28.57h7.15v-7.15h7.14v-7.14h7.14v-7.14h7.14v-7.15h35.72v7.15h14.28v7.14Z"/>
    <polygon class="uuid-07cbbc0b-f229-45aa-8458-b055b62e4e9a" points="150.5 71.93 150.5 79.07 157.64 79.07 157.64 86.21 164.79 86.21 164.79 79.07 164.79 71.93 157.64 71.93 157.64 64.79 157.64 57.64 150.5 57.64 150.5 64.79 150.5 71.93"/>
  </g>
  <g>
    <polygon class="uuid-997dc7c4-3262-4bf2-9a80-189885b739d2" points="150.5 207.64 143.36 207.64 143.36 214.79 136.21 214.79 129.07 214.79 121.93 214.79 114.79 214.79 107.64 214.79 100.5 214.79 93.36 214.79 86.21 214.79 79.07 214.79 79.07 207.64 71.93 207.64 71.93 200.5 64.79 200.5 57.64 200.5 57.64 193.36 57.64 186.21 50.5 186.21 50.5 179.07 50.5 171.93 43.36 171.93 43.36 164.79 43.36 157.64 36.21 157.64 36.21 150.5 29.07 150.5 29.07 143.36 29.07 136.21 36.21 136.21 36.21 129.07 36.21 121.93 36.21 114.79 36.21 107.64 36.21 100.5 43.36 100.5 43.36 93.36 43.36 86.21 43.36 79.07 50.5 79.07 50.5 71.93 50.5 64.79 50.5 57.64 43.36 57.64 43.36 64.79 43.36 71.93 36.21 71.93 36.21 79.07 36.21 86.21 36.21 93.36 29.07 93.36 29.07 100.5 29.07 107.64 29.07 114.79 29.07 121.93 29.07 129.07 21.93 129.07 21.93 136.21 21.93 143.36 21.93 150.5 21.93 157.64 29.07 157.64 29.07 164.79 29.07 171.93 29.07 179.07 36.21 179.07 36.21 186.21 43.36 186.21 43.36 193.36 43.36 200.5 50.5 200.5 50.5 207.64 50.5 214.79 57.64 214.79 64.79 214.79 71.93 214.79 71.93 221.93 79.07 221.93 86.21 221.93 93.36 221.93 100.5 221.93 107.64 221.93 114.79 221.93 121.93 221.93 129.07 221.93 136.21 221.93 143.36 221.93 150.5 221.93 150.5 214.79 157.64 214.79 157.64 207.64 150.5 207.64"/>
    <polygon class="uuid-997dc7c4-3262-4bf2-9a80-189885b739d2" points="57.64 50.5 64.79 50.5 64.79 43.36 71.93 43.36 71.93 36.21 79.07 36.21 79.07 29.07 86.21 29.07 93.36 29.07 93.36 21.93 100.5 21.93 100.5 14.79 93.36 14.79 86.21 14.79 79.07 14.79 79.07 21.93 71.93 21.93 71.93 29.07 64.79 29.07 64.79 36.21 57.64 36.21 57.64 43.36 50.5 43.36 50.5 50.5 50.5 57.64 57.64 57.64 57.64 50.5"/>
  </g>
  <g>
    <polygon class="uuid-fb2a4fc9-c8c7-4f3d-91dd-0967291abf7b" points="107.64 236.21 100.5 236.21 93.36 236.21 93.36 229.07 86.21 229.07 79.07 229.07 71.93 229.07 64.79 229.07 57.64 229.07 57.64 221.93 50.5 221.93 43.36 221.93 43.36 229.07 50.5 229.07 50.5 236.21 57.64 236.21 64.79 236.21 64.79 243.36 71.93 243.36 79.07 243.36 86.21 243.36 93.36 243.36 100.5 243.36 107.64 243.36 114.79 243.36 114.79 236.21 107.64 236.21"/>
    <polygon class="uuid-fb2a4fc9-c8c7-4f3d-91dd-0967291abf7b" points="43.36 207.64 36.21 207.64 36.21 200.5 29.07 200.5 29.07 207.64 29.07 214.79 36.21 214.79 36.21 221.93 43.36 221.93 43.36 214.79 43.36 207.64"/>
    <polygon class="uuid-fb2a4fc9-c8c7-4f3d-91dd-0967291abf7b" points="29.07 186.21 21.93 186.21 21.93 193.36 21.93 200.5 29.07 200.5 29.07 193.36 29.07 186.21"/>
    <rect class="uuid-fb2a4fc9-c8c7-4f3d-91dd-0967291abf7b" x="14.79" y="179.07" width="7.14" height="7.14"/>
  </g>
  <g>
    <rect class="uuid-2b68fe71-bbd7-4444-99b8-f6979b8f3d29" x="50.5" y="36.21" width="7.14" height="7.15"/>
    <polygon class="uuid-2b68fe71-bbd7-4444-99b8-f6979b8f3d29" points="50.5 50.5 50.5 43.36 43.36 43.36 43.36 50.5 43.36 57.64 50.5 57.64 50.5 50.5"/>
    <polygon class="uuid-2b68fe71-bbd7-4444-99b8-f6979b8f3d29" points="43.36 64.79 43.36 57.64 36.21 57.64 36.21 64.79 36.21 71.93 43.36 71.93 43.36 64.79"/>
    <rect class="uuid-2b68fe71-bbd7-4444-99b8-f6979b8f3d29" x="71.93" y="14.79" width="7.14" height="7.14"/>
    <rect class="uuid-2b68fe71-bbd7-4444-99b8-f6979b8f3d29" x="64.79" y="21.93" width="7.14" height="7.14"/>
    <rect class="uuid-2b68fe71-bbd7-4444-99b8-f6979b8f3d29" x="57.64" y="29.07" width="7.15" height="7.14"/>
    <polygon class="uuid-2b68fe71-bbd7-4444-99b8-f6979b8f3d29" points="186.21 121.93 186.21 129.07 186.21 136.21 186.21 143.36 186.21 150.5 186.21 157.64 186.21 164.79 186.21 171.93 193.36 171.93 193.36 164.79 193.36 157.64 193.36 150.5 193.36 143.36 193.36 136.21 193.36 129.07 193.36 121.93 186.21 121.93"/>
    <polygon class="uuid-2b68fe71-bbd7-4444-99b8-f6979b8f3d29" points="157.64 71.93 164.79 71.93 164.79 64.79 164.79 57.64 157.64 57.64 157.64 64.79 157.64 71.93"/>
    <polygon class="uuid-2b68fe71-bbd7-4444-99b8-f6979b8f3d29" points="150.5 57.64 157.64 57.64 157.64 50.5 157.64 43.36 150.5 43.36 150.5 50.5 150.5 57.64"/>
    <rect class="uuid-2b68fe71-bbd7-4444-99b8-f6979b8f3d29" x="143.36" y="36.21" width="7.14" height="7.15"/>
    <rect class="uuid-2b68fe71-bbd7-4444-99b8-f6979b8f3d29" x="136.21" y="29.07" width="7.15" height="7.14"/>
    <rect class="uuid-2b68fe71-bbd7-4444-99b8-f6979b8f3d29" x="129.07" y="21.93" width="7.14" height="7.14"/>
    <rect class="uuid-2b68fe71-bbd7-4444-99b8-f6979b8f3d29" x="121.93" y="14.79" width="7.14" height="7.14"/>
    <polygon class="uuid-2b68fe71-bbd7-4444-99b8-f6979b8f3d29" points="93.36 14.79 100.5 14.79 107.64 14.79 114.79 14.79 121.93 14.79 121.93 7.64 114.79 7.64 107.64 7.64 100.5 7.64 93.36 7.64 86.21 7.64 79.07 7.64 79.07 14.79 86.21 14.79 93.36 14.79"/>
    <polygon class="uuid-2b68fe71-bbd7-4444-99b8-f6979b8f3d29" points="179.07 107.64 179.07 114.79 179.07 121.93 186.21 121.93 186.21 114.79 186.21 107.64 186.21 100.5 186.21 93.36 179.07 93.36 179.07 100.5 179.07 107.64"/>
    <rect class="uuid-2b68fe71-bbd7-4444-99b8-f6979b8f3d29" x="171.93" y="86.21" width="7.14" height="7.15"/>
    <polygon class="uuid-2b68fe71-bbd7-4444-99b8-f6979b8f3d29" points="164.79 86.21 171.93 86.21 171.93 79.07 171.93 71.93 164.79 71.93 164.79 79.07 164.79 86.21"/>
    <polygon class="uuid-2b68fe71-bbd7-4444-99b8-f6979b8f3d29" points="179.07 179.07 179.07 186.21 186.21 186.21 186.21 179.07 186.21 171.93 179.07 171.93 179.07 179.07"/>
    <polygon class="uuid-2b68fe71-bbd7-4444-99b8-f6979b8f3d29" points="171.93 193.36 171.93 200.5 179.07 200.5 179.07 193.36 179.07 186.21 171.93 186.21 171.93 193.36"/>
    <polygon class="uuid-2b68fe71-bbd7-4444-99b8-f6979b8f3d29" points="164.79 207.64 157.64 207.64 157.64 214.79 150.5 214.79 150.5 221.93 143.36 221.93 136.21 221.93 129.07 221.93 121.93 221.93 114.79 221.93 107.64 221.93 100.5 221.93 93.36 221.93 86.21 221.93 79.07 221.93 71.93 221.93 71.93 214.79 64.79 214.79 57.64 214.79 50.5 214.79 50.5 207.64 50.5 200.5 43.36 200.5 43.36 193.36 43.36 186.21 36.21 186.21 36.21 179.07 29.07 179.07 29.07 171.93 29.07 164.79 29.07 157.64 21.93 157.64 21.93 150.5 21.93 143.36 21.93 136.21 21.93 129.07 29.07 129.07 29.07 121.93 29.07 114.79 29.07 107.64 29.07 100.5 29.07 93.36 36.21 93.36 36.21 86.21 36.21 79.07 36.21 71.93 29.07 71.93 29.07 79.07 29.07 86.21 21.93 86.21 21.93 93.36 14.79 93.36 14.79 100.5 14.79 107.64 14.79 114.79 14.79 121.93 7.64 121.93 7.64 129.07 7.64 136.21 7.64 143.36 7.64 150.5 7.64 157.64 7.64 164.79 7.64 171.93 14.79 171.93 14.79 179.07 21.93 179.07 21.93 186.21 29.07 186.21 29.07 193.36 29.07 200.5 36.21 200.5 36.21 207.64 43.36 207.64 43.36 214.79 43.36 221.93 50.5 221.93 57.64 221.93 57.64 229.07 64.79 229.07 71.93 229.07 79.07 229.07 86.21 229.07 93.36 229.07 93.36 236.21 100.5 236.21 107.64 236.21 114.79 236.21 114.79 243.36 121.93 243.36 129.07 243.36 136.21 243.36 136.21 236.21 143.36 236.21 150.5 236.21 150.5 229.07 157.64 229.07 157.64 221.93 164.79 221.93 164.79 214.79 171.93 214.79 171.93 207.64 171.93 200.5 164.79 200.5 164.79 207.64"/>
  </g>
</svg>