<?xml version="1.0" encoding="UTF-8"?>
<svg id="uuid-bddb63b8-ca37-43a9-a6d8-2bea84e69814" data-name="Layer_1" xmlns="http://www.w3.org/2000/svg" viewBox="0 0 200 250">
  <defs>
    <style>
      .uuid-9361383d-51fd-43d7-a573-267dae5f6245 {
        fill: #5e5b58;
      }

      .uuid-a453d4ec-9380-4b34-b3f6-904e8bbac3e0 {
        fill: #f7f6f5;
      }

      .uuid-fa32f172-1a7a-4e69-87ab-9727f068b6c6 {
        fill: #fff;
      }

      .uuid-1e955b1a-4c3d-404b-953b-a87e07f05fad {
        fill: #dd9637;
      }

      .uuid-ffc6c0fb-a3ad-4b44-95d4-2b4e113042a4 {
        fill: #898279;
      }

      .uuid-de8ce997-24ac-4ebf-9b66-98d0dba972a5 {
        fill: #eae0d6;
      }

      .uuid-ec0e447f-c598-44c7-a109-591ebfab8c74 {
        fill: #e5a235;
      }

      .uuid-52ed504f-158f-443a-8d7e-19bcc7eedc21 {
        fill: #e2c537;
      }
    </style>
  </defs>
  <polygon class="uuid-a453d4ec-9380-4b34-b3f6-904e8bbac3e0" points="171.93 136.21 171.93 129.07 171.93 121.93 171.93 114.79 171.93 107.64 171.93 100.5 164.79 100.5 164.79 93.36 164.79 86.21 157.64 86.21 157.64 79.07 150.5 79.07 150.5 71.93 150.5 64.79 150.5 57.64 143.36 57.64 143.36 50.5 136.21 50.5 136.21 43.36 129.07 43.36 129.07 36.21 121.93 36.21 121.93 29.07 114.79 29.07 107.64 29.07 107.64 36.21 114.79 36.21 114.79 43.36 121.93 43.36 121.93 50.5 129.07 50.5 129.07 57.64 136.21 57.64 136.21 64.79 136.21 71.93 143.36 71.93 143.36 79.07 143.36 86.21 150.5 86.21 150.5 93.36 157.64 93.36 157.64 100.5 157.64 107.64 164.79 107.64 164.79 114.79 164.79 121.93 164.79 129.07 164.79 136.21 164.79 143.36 164.79 150.5 164.79 157.64 157.64 157.64 157.64 164.79 157.64 171.93 150.5 171.93 150.5 179.07 150.5 186.21 143.36 186.21 143.36 193.36 136.21 193.36 129.07 193.36 121.93 193.36 121.93 200.5 114.79 200.5 114.79 207.64 121.93 207.64 129.07 207.64 136.21 207.64 136.21 200.5 143.36 200.5 150.5 200.5 150.5 193.36 157.64 193.36 157.64 186.21 164.79 186.21 164.79 179.07 164.79 171.93 164.79 164.79 171.93 164.79 179.07 164.79 179.07 157.64 179.07 150.5 179.07 143.36 179.07 136.21 171.93 136.21"/>
  <polygon class="uuid-1e955b1a-4c3d-404b-953b-a87e07f05fad" points="143.36 114.79 143.36 121.93 136.21 121.93 136.21 129.07 136.21 136.21 136.21 143.36 129.07 143.36 129.07 150.5 121.93 150.5 121.93 157.64 114.79 157.64 107.64 157.64 100.5 157.64 100.5 164.79 100.5 171.93 93.36 171.93 93.36 179.07 100.5 179.07 107.64 179.07 107.64 171.93 114.79 171.93 121.93 171.93 129.07 171.93 136.21 171.93 136.21 164.79 143.36 164.79 143.36 157.64 143.36 150.5 150.5 150.5 150.5 143.36 150.5 136.21 150.5 129.07 150.5 121.93 150.5 114.79 143.36 114.79"/>
  <g>
    <polygon class="uuid-ec0e447f-c598-44c7-a109-591ebfab8c74" points="107.64 171.93 107.64 179.07 114.79 179.07 121.93 179.07 121.93 171.93 114.79 171.93 107.64 171.93"/>
    <polygon class="uuid-ec0e447f-c598-44c7-a109-591ebfab8c74" points="121.93 121.93 121.93 114.79 114.79 114.79 114.79 107.64 114.79 100.5 107.64 100.5 100.5 100.5 100.5 107.64 93.36 107.64 93.36 114.79 86.21 114.79 79.07 114.79 79.07 121.93 79.07 129.07 71.93 129.07 71.93 136.21 71.93 143.36 79.07 143.36 79.07 150.5 79.07 157.64 86.21 157.64 86.21 164.79 86.21 171.93 86.21 179.07 93.36 179.07 93.36 171.93 100.5 171.93 100.5 164.79 100.5 157.64 100.5 150.5 93.36 150.5 86.21 150.5 86.21 143.36 86.21 136.21 93.36 136.21 100.5 136.21 100.5 143.36 107.64 143.36 114.79 143.36 114.79 136.21 121.93 136.21 129.07 136.21 129.07 129.07 129.07 121.93 121.93 121.93"/>
  </g>
  <polygon class="uuid-52ed504f-158f-443a-8d7e-19bcc7eedc21" points="136.21 107.64 136.21 100.5 136.21 93.36 129.07 93.36 121.93 93.36 121.93 86.21 114.79 86.21 107.64 86.21 100.5 86.21 93.36 86.21 86.21 86.21 86.21 93.36 79.07 93.36 79.07 100.5 71.93 100.5 71.93 107.64 64.79 107.64 64.79 114.79 57.64 114.79 57.64 121.93 57.64 129.07 57.64 136.21 57.64 143.36 64.79 143.36 64.79 150.5 64.79 157.64 71.93 157.64 71.93 164.79 79.07 164.79 79.07 171.93 86.21 171.93 86.21 164.79 86.21 157.64 79.07 157.64 79.07 150.5 79.07 143.36 71.93 143.36 71.93 136.21 71.93 129.07 79.07 129.07 79.07 121.93 79.07 114.79 86.21 114.79 93.36 114.79 93.36 107.64 100.5 107.64 100.5 100.5 107.64 100.5 114.79 100.5 114.79 107.64 114.79 114.79 121.93 114.79 121.93 121.93 129.07 121.93 129.07 129.07 129.07 136.21 121.93 136.21 114.79 136.21 114.79 143.36 107.64 143.36 100.5 143.36 100.5 136.21 93.36 136.21 86.21 136.21 86.21 143.36 86.21 150.5 93.36 150.5 100.5 150.5 100.5 157.64 107.64 157.64 114.79 157.64 121.93 157.64 121.93 150.5 129.07 150.5 129.07 143.36 136.21 143.36 136.21 136.21 136.21 129.07 136.21 121.93 143.36 121.93 143.36 114.79 143.36 107.64 136.21 107.64"/>
  <g>
    <path class="uuid-fa32f172-1a7a-4e69-87ab-9727f068b6c6" d="M179.07,121.93v-28.57h-7.14v-7.15h-7.14v14.29h7.14v35.71h7.14v28.58h-14.28v21.42h-7.15v7.15h-7.14v7.14h-14.29v7.14h-21.42v-7.14h7.14v-7.14h21.43v-7.15h7.14v-14.28h7.14v-14.29h7.15v-50h-7.15v-14.28h-7.14v-7.15h-7.14v-14.28h-7.15v-14.29h-7.14v-7.14h-7.14v-7.14h-7.14v-7.15h-7.15v-7.14h14.29v7.14h7.14v7.15h7.14v7.14h7.15v7.14h7.14v-14.28h-7.14v-7.15h-7.15v-7.14h-7.14v-7.14h-7.14v-7.14h-21.43v7.14h-7.14v7.14h-14.29v7.14h-7.14v7.15h-7.14v7.14h-7.15v7.14h-7.14v21.43h-7.14v21.43h-7.15v35.71h-7.14v14.29h7.14v7.14h7.15v14.29h7.14v14.28h7.14v14.29h14.29v7.14h7.14v7.15h64.29v-7.15h21.43v-7.14h7.14v-14.29h7.14v-14.28h7.14v-50h-7.14ZM136.21,100.5v7.14h7.15v7.15h7.14v35.71h-7.14v14.29h-7.15v7.14h-14.28v7.14h-35.72v-7.14h-7.14v-7.14h-7.14v-7.15h-7.14v-14.28h-7.15v-28.57h7.15v-7.15h7.14v-7.14h7.14v-7.14h7.14v-7.15h35.72v7.15h14.28v7.14Z"/>
    <polygon class="uuid-fa32f172-1a7a-4e69-87ab-9727f068b6c6" points="150.5 71.93 150.5 79.07 157.64 79.07 157.64 86.21 164.79 86.21 164.79 79.07 164.79 71.93 157.64 71.93 157.64 64.79 157.64 57.64 150.5 57.64 150.5 64.79 150.5 71.93"/>
  </g>
  <g>
    <polygon class="uuid-de8ce997-24ac-4ebf-9b66-98d0dba972a5" points="150.5 207.64 143.36 207.64 143.36 214.79 136.21 214.79 129.07 214.79 121.93 214.79 114.79 214.79 107.64 214.79 100.5 214.79 93.36 214.79 86.21 214.79 79.07 214.79 79.07 207.64 71.93 207.64 71.93 200.5 64.79 200.5 57.64 200.5 57.64 193.36 57.64 186.21 50.5 186.21 50.5 179.07 50.5 171.93 43.36 171.93 43.36 164.79 43.36 157.64 36.21 157.64 36.21 150.5 29.07 150.5 29.07 143.36 29.07 136.21 36.21 136.21 36.21 129.07 36.21 121.93 36.21 114.79 36.21 107.64 36.21 100.5 43.36 100.5 43.36 93.36 43.36 86.21 43.36 79.07 50.5 79.07 50.5 71.93 50.5 64.79 50.5 57.64 43.36 57.64 43.36 64.79 43.36 71.93 36.21 71.93 36.21 79.07 36.21 86.21 36.21 93.36 29.07 93.36 29.07 100.5 29.07 107.64 29.07 114.79 29.07 121.93 29.07 129.07 21.93 129.07 21.93 136.21 21.93 143.36 21.93 150.5 21.93 157.64 29.07 157.64 29.07 164.79 29.07 171.93 29.07 179.07 36.21 179.07 36.21 186.21 43.36 186.21 43.36 193.36 43.36 200.5 50.5 200.5 50.5 207.64 50.5 214.79 57.64 214.79 64.79 214.79 71.93 214.79 71.93 221.93 79.07 221.93 86.21 221.93 93.36 221.93 100.5 221.93 107.64 221.93 114.79 221.93 121.93 221.93 129.07 221.93 136.21 221.93 143.36 221.93 150.5 221.93 150.5 214.79 157.64 214.79 157.64 207.64 150.5 207.64"/>
    <polygon class="uuid-de8ce997-24ac-4ebf-9b66-98d0dba972a5" points="57.64 50.5 64.79 50.5 64.79 43.36 71.93 43.36 71.93 36.21 79.07 36.21 79.07 29.07 86.21 29.07 93.36 29.07 93.36 21.93 100.5 21.93 100.5 14.79 93.36 14.79 86.21 14.79 79.07 14.79 79.07 21.93 71.93 21.93 71.93 29.07 64.79 29.07 64.79 36.21 57.64 36.21 57.64 43.36 50.5 43.36 50.5 50.5 50.5 57.64 57.64 57.64 57.64 50.5"/>
  </g>
  <g>
    <polygon class="uuid-9361383d-51fd-43d7-a573-267dae5f6245" points="107.64 236.21 100.5 236.21 93.36 236.21 93.36 229.07 86.21 229.07 79.07 229.07 71.93 229.07 64.79 229.07 57.64 229.07 57.64 221.93 50.5 221.93 43.36 221.93 43.36 229.07 50.5 229.07 50.5 236.21 57.64 236.21 64.79 236.21 64.79 243.36 71.93 243.36 79.07 243.36 86.21 243.36 93.36 243.36 100.5 243.36 107.64 243.36 114.79 243.36 114.79 236.21 107.64 236.21"/>
    <polygon class="uuid-9361383d-51fd-43d7-a573-267dae5f6245" points="43.36 207.64 36.21 207.64 36.21 200.5 29.07 200.5 29.07 207.64 29.07 214.79 36.21 214.79 36.21 221.93 43.36 221.93 43.36 214.79 43.36 207.64"/>
    <polygon class="uuid-9361383d-51fd-43d7-a573-267dae5f6245" points="29.07 186.21 21.93 186.21 21.93 193.36 21.93 200.5 29.07 200.5 29.07 193.36 29.07 186.21"/>
    <rect class="uuid-9361383d-51fd-43d7-a573-267dae5f6245" x="14.79" y="179.07" width="7.14" height="7.14"/>
  </g>
  <g>
    <rect class="uuid-ffc6c0fb-a3ad-4b44-95d4-2b4e113042a4" x="171.93" y="86.21" width="7.14" height="7.15"/>
    <polygon class="uuid-ffc6c0fb-a3ad-4b44-95d4-2b4e113042a4" points="157.64 71.93 164.79 71.93 164.79 64.79 164.79 57.64 157.64 57.64 157.64 64.79 157.64 71.93"/>
    <polygon class="uuid-ffc6c0fb-a3ad-4b44-95d4-2b4e113042a4" points="150.5 57.64 157.64 57.64 157.64 50.5 157.64 43.36 150.5 43.36 150.5 50.5 150.5 57.64"/>
    <rect class="uuid-ffc6c0fb-a3ad-4b44-95d4-2b4e113042a4" x="143.36" y="36.21" width="7.14" height="7.15"/>
    <rect class="uuid-ffc6c0fb-a3ad-4b44-95d4-2b4e113042a4" x="136.21" y="29.07" width="7.15" height="7.14"/>
    <rect class="uuid-ffc6c0fb-a3ad-4b44-95d4-2b4e113042a4" x="129.07" y="21.93" width="7.14" height="7.14"/>
    <rect class="uuid-ffc6c0fb-a3ad-4b44-95d4-2b4e113042a4" x="121.93" y="14.79" width="7.14" height="7.14"/>
    <polygon class="uuid-ffc6c0fb-a3ad-4b44-95d4-2b4e113042a4" points="93.36 14.79 100.5 14.79 107.64 14.79 114.79 14.79 121.93 14.79 121.93 7.64 114.79 7.64 107.64 7.64 100.5 7.64 93.36 7.64 86.21 7.64 79.07 7.64 79.07 14.79 86.21 14.79 93.36 14.79"/>
    <rect class="uuid-ffc6c0fb-a3ad-4b44-95d4-2b4e113042a4" x="71.93" y="14.79" width="7.14" height="7.14"/>
    <rect class="uuid-ffc6c0fb-a3ad-4b44-95d4-2b4e113042a4" x="64.79" y="21.93" width="7.14" height="7.14"/>
    <rect class="uuid-ffc6c0fb-a3ad-4b44-95d4-2b4e113042a4" x="57.64" y="29.07" width="7.15" height="7.14"/>
    <rect class="uuid-ffc6c0fb-a3ad-4b44-95d4-2b4e113042a4" x="50.5" y="36.21" width="7.14" height="7.15"/>
    <polygon class="uuid-ffc6c0fb-a3ad-4b44-95d4-2b4e113042a4" points="50.5 50.5 50.5 43.36 43.36 43.36 43.36 50.5 43.36 57.64 50.5 57.64 50.5 50.5"/>
    <polygon class="uuid-ffc6c0fb-a3ad-4b44-95d4-2b4e113042a4" points="43.36 64.79 43.36 57.64 36.21 57.64 36.21 64.79 36.21 71.93 43.36 71.93 43.36 64.79"/>
    <polygon class="uuid-ffc6c0fb-a3ad-4b44-95d4-2b4e113042a4" points="164.79 86.21 171.93 86.21 171.93 79.07 171.93 71.93 164.79 71.93 164.79 79.07 164.79 86.21"/>
    <polygon class="uuid-ffc6c0fb-a3ad-4b44-95d4-2b4e113042a4" points="179.07 107.64 179.07 114.79 179.07 121.93 186.21 121.93 186.21 114.79 186.21 107.64 186.21 100.5 186.21 93.36 179.07 93.36 179.07 100.5 179.07 107.64"/>
    <polygon class="uuid-ffc6c0fb-a3ad-4b44-95d4-2b4e113042a4" points="186.21 121.93 186.21 129.07 186.21 136.21 186.21 143.36 186.21 150.5 186.21 157.64 186.21 164.79 186.21 171.93 193.36 171.93 193.36 164.79 193.36 157.64 193.36 150.5 193.36 143.36 193.36 136.21 193.36 129.07 193.36 121.93 186.21 121.93"/>
    <polygon class="uuid-ffc6c0fb-a3ad-4b44-95d4-2b4e113042a4" points="179.07 179.07 179.07 186.21 186.21 186.21 186.21 179.07 186.21 171.93 179.07 171.93 179.07 179.07"/>
    <polygon class="uuid-ffc6c0fb-a3ad-4b44-95d4-2b4e113042a4" points="171.93 193.36 171.93 200.5 179.07 200.5 179.07 193.36 179.07 186.21 171.93 186.21 171.93 193.36"/>
    <polygon class="uuid-ffc6c0fb-a3ad-4b44-95d4-2b4e113042a4" points="164.79 207.64 157.64 207.64 157.64 214.79 150.5 214.79 150.5 221.93 143.36 221.93 136.21 221.93 129.07 221.93 121.93 221.93 114.79 221.93 107.64 221.93 100.5 221.93 93.36 221.93 86.21 221.93 79.07 221.93 71.93 221.93 71.93 214.79 64.79 214.79 57.64 214.79 50.5 214.79 50.5 207.64 50.5 200.5 43.36 200.5 43.36 193.36 43.36 186.21 36.21 186.21 36.21 179.07 29.07 179.07 29.07 171.93 29.07 164.79 29.07 157.64 21.93 157.64 21.93 150.5 21.93 143.36 21.93 136.21 21.93 129.07 29.07 129.07 29.07 121.93 29.07 114.79 29.07 107.64 29.07 100.5 29.07 93.36 36.21 93.36 36.21 86.21 36.21 79.07 36.21 71.93 29.07 71.93 29.07 79.07 29.07 86.21 21.93 86.21 21.93 93.36 14.79 93.36 14.79 100.5 14.79 107.64 14.79 114.79 14.79 121.93 7.64 121.93 7.64 129.07 7.64 136.21 7.64 143.36 7.64 150.5 7.64 157.64 7.64 164.79 7.64 171.93 14.79 171.93 14.79 179.07 21.93 179.07 21.93 186.21 29.07 186.21 29.07 193.36 29.07 200.5 36.21 200.5 36.21 207.64 43.36 207.64 43.36 214.79 43.36 221.93 50.5 221.93 57.64 221.93 57.64 229.07 64.79 229.07 71.93 229.07 79.07 229.07 86.21 229.07 93.36 229.07 93.36 236.21 100.5 236.21 107.64 236.21 114.79 236.21 114.79 243.36 121.93 243.36 129.07 243.36 136.21 243.36 136.21 236.21 143.36 236.21 150.5 236.21 150.5 229.07 157.64 229.07 157.64 221.93 164.79 221.93 164.79 214.79 171.93 214.79 171.93 207.64 171.93 200.5 164.79 200.5 164.79 207.64"/>
  </g>
</svg>